<?xml version="1.0" encoding="iso-8859-1"?>
<!-- Generator: Adobe Illustrator 19.0.0, SVG Export Plug-In . SVG Version: 6.00 Build 0)  -->
<svg version="1.1" id="Layer_1" xmlns="http://www.w3.org/2000/svg" xmlns:xlink="http://www.w3.org/1999/xlink" x="0px" y="0px"
	 viewBox="0 0 512 512" style="enable-background:new 0 0 512 512;" xml:space="preserve">
<path style="fill:#F5C882;" d="M411.837,2.089c-17.897-6.514-37.687,2.714-44.201,20.611l-80.85,222.135L205.934,22.701
	C199.42,4.802,179.63-4.425,161.732,2.089s-27.126,26.304-20.611,44.202l78.016,218.561c-7.314,6.689-11.742,16.482-11.176,27.301
	c0.976,18.649,17.714,32.634,36.389,32.634l-123.585,22.641l25.544,111.107C153.528,489.832,181.396,512,213.513,512h92.93
	c48.976,0,88.68-39.704,88.68-88.68V305.08c0-23.815-16.898-43.683-39.359-48.269l76.683-210.52
	C438.962,28.393,429.734,8.604,411.837,2.089z"/>
<path style="fill:#F5AF73;" d="M148.192,352.216l19.686,91.864c4.517,21.078,23.144,36.136,44.699,36.136h63.615
	c40.395,0,73.143-32.747,73.143-73.143v-45.714c0-20.198-16.374-36.571-36.571-36.571H148.192V352.216z"/>
<path style="fill:#F5965F;" d="M312.764,324.788l-72.192-0.109l-119.808,22.75l11.273,49.037c2.491,0.365,5.019,0.594,7.585,0.594
	c6.155,0,12.227-1.074,18.048-3.192c8-2.912,14.903-7.611,20.392-13.51c2.013-2.162,5.241-2.409,7.928-1.184
	c6.719,3.062,14.126,4.742,21.793,4.742c6.155,0,12.227-1.074,18.048-3.192c15.321-5.576,26.464-17.52,31.496-31.93
	c0.978-2.801,3.458-4.793,6.425-4.793h81.015C338.57,332.609,326.642,324.788,312.764,324.788z"/>
<g>
	<path style="fill:#F5C882;" d="M173.076,336.616l-30.563-83.971c-7.808-15.271-25.817-22.787-42.349-16.77
		c-17.898,6.514-27.126,26.304-20.611,44.202l27.661,75.998c6.514,17.898,26.304,27.126,44.202,20.611
		C167.948,370.668,176.912,353.333,173.076,336.616z"/>
	<path style="fill:#F5C882;" d="M241.682,324.782L199.86,208.54c-6.514-17.898-26.304-27.126-44.202-20.611
		c-17.898,6.514-27.126,26.304-20.613,44.202l40.328,110.8c6.514,17.898,26.304,27.126,44.202,20.611
		C235.673,357.682,244.758,341.084,241.682,324.782z"/>
</g>
<g>
	<path style="fill:#F5AF73;" d="M171.365,345.34c-17.898,6.514-37.688-2.714-44.202-20.611L99.502,248.73
		c-1.394-3.832-1.929-7.739-1.951-11.595c-16.097,7.445-24.175,25.973-17.999,42.942l27.661,75.998
		c6.514,17.898,26.304,27.126,44.202,20.611c14.043-5.112,22.807-18.392,22.45-32.53C173.024,344.541,172.25,345.017,171.365,345.34
		z"/>
	<path style="fill:#F5AF73;" d="M249.279,255.814L174.264,46.292C168.37,30.1,175.44,12.461,190.079,4.404
		c-8.408-4.621-18.622-5.854-28.346-2.314c-17.898,6.514-27.126,26.304-20.611,44.202l71.566,200.491
		c-3.081,2.089-5.979,4.463-8.571,7.193c-4.535,4.779-7.977,10.247-10.345,16.146c-1.251,3.119-4.329,5.115-7.685,5.297
		c-3.943,0.214-7.56-2.177-8.911-5.887l-26.894-73.889c-0.542-1.489-0.816-3-1.144-4.505c-13.496,8.45-19.757,25.427-14.091,40.993
		l39.781,109.296c5.849,17.871,23.609,27.453,40.917,23.271c18.463-4.461,29.251-22.359,25.939-39.914l-0.015-0.089l-1.381-0.123
		c-16.954-1.866-31.423-15.153-32.327-32.418c-0.584-11.158,4.249-21.107,11.979-27.803l-0.003-0.009
		c6.041-5.247,13.832-8.526,22.462-8.526h6.881V255.814z"/>
	<path style="fill:#F5AF73;" d="M328.909,223.3L401.92,22.701c2.902-7.971,8.513-14.088,15.341-17.994
		c-0.486-0.28-1.062-0.622-1.702-1.001c-1.197-0.601-2.434-1.146-3.723-1.616c-17.897-6.514-37.687,2.714-44.201,20.611
		l-80.85,222.135h11.368C311.912,244.836,324.202,236.23,328.909,223.3z"/>
</g>
<g>
</g>
<g>
</g>
<g>
</g>
<g>
</g>
<g>
</g>
<g>
</g>
<g>
</g>
<g>
</g>
<g>
</g>
<g>
</g>
<g>
</g>
<g>
</g>
<g>
</g>
<g>
</g>
<g>
</g>
</svg>
